<?xml version="1.0" encoding="iso-8859-1"?>
<!-- Generator: Adobe Illustrator 17.0.0, SVG Export Plug-In . SVG Version: 6.00 Build 0)  -->
<!DOCTYPE svg PUBLIC "-//W3C//DTD SVG 1.1//EN" "http://www.w3.org/Graphics/SVG/1.1/DTD/svg11.dtd">
<svg version="1.1" id="Icons" xmlns="http://www.w3.org/2000/svg" xmlns:xlink="http://www.w3.org/1999/xlink" x="0px" y="0px"
	 width="800px" height="518px" viewBox="0 0 800 518" style="enable-background:new 0 0 800 518;" xml:space="preserve">
<g>
	<path style="fill:#1D1D1B;" d="M377.323,106h-2.656h-9.5H364V93h-0.115c0.828,0,1.5-0.671,1.5-1.5s-0.672-1.5-1.5-1.5h-0.219h-16
		h-0.219c-0.829,0-1.5,0.671-1.5,1.5s0.671,1.5,1.5,1.5H348v9h-1.833h-9.5h-2.469c-0.829,0-1.5,0.671-1.5,1.5s0.671,1.5,1.5,1.5H335
		v18c0,1.104,0.562,2,1.667,2h11h1h14h1h11c1.104,0,2.333-0.896,2.333-2v-14h0.323c0.828,0,1.5-0.671,1.5-1.5
		S378.151,106,377.323,106z M348,122h-10v-17h8.167H348V122z M361,108v14h-10v-18V93h10V108z M374,122h-10v-13h1.167H374V122z"/>
	<g>
		<path style="fill:#1D1D1B;" d="M355.026,99.853h-0.02l-1.239,0.589l-0.25-1.139l1.729-0.8h1.249V105h-1.469V99.853z"/>
	</g>
	<g>
		<path style="fill:#1D1D1B;" d="M366.356,117.511c0.27,0.15,0.89,0.4,1.51,0.4c0.789,0,1.189-0.38,1.189-0.859
			c0-0.65-0.641-0.939-1.31-0.939h-0.62v-1.09h0.6c0.51,0,1.149-0.2,1.149-0.75c0-0.39-0.31-0.68-0.96-0.68
			c-0.529,0-1.089,0.23-1.349,0.39l-0.31-1.1c0.39-0.25,1.159-0.49,2.009-0.49c1.38,0,2.149,0.729,2.149,1.619
			c0,0.689-0.391,1.239-1.189,1.509v0.02c0.779,0.14,1.408,0.729,1.408,1.589c0,1.14-1.009,1.979-2.658,1.979
			c-0.84,0-1.549-0.22-1.929-0.45L366.356,117.511z"/>
	</g>
	<g>
		<path style="fill:#1D1D1B;" d="M340.096,116v-0.919l0.83-0.749c1.429-1.279,2.119-2.009,2.129-2.769c0-0.53-0.31-0.95-1.06-0.95
			c-0.56,0-1.049,0.28-1.389,0.53l-0.43-1.079c0.48-0.37,1.249-0.67,2.119-0.67c1.479,0,2.279,0.859,2.279,2.029
			c0,1.1-0.779,1.969-1.729,2.809l-0.6,0.499v0.02h2.458V116H340.096z"/>
	</g>
</g>
<g>
	<path style="fill:#1D1D1B;" d="M354,173.25v9.073c-1.345,0.227-2.375,1.393-2.375,2.802c0,1.572,1.278,2.85,2.85,2.85
		c1.572,0,2.85-1.103,2.85-2.675c0-0.163-0.022-0.3-0.048-0.3h8.123C365.4,178,360.296,173.25,354,173.25z M354.475,187.025
		c-1.048,0-1.9-0.852-1.9-1.9s0.852-1.9,1.9-1.9c1.048,0,1.9,0.852,1.9,1.9S355.523,187.025,354.475,187.025z"/>
	<path style="fill:#1D1D1B;" d="M359.561,166.484c0.082-0.266,0.214-0.542,0.214-0.835c0-1.574-1.775-2.85-2.775-2.85V161h0.8
		c0.525,0,0.95-0.475,0.95-1s-0.425-1-0.95-1h-6.65c-0.525,0-0.95,0.475-0.95,1s0.425,1,0.95,1H352v1.8c-1,0-2.8,1.276-2.8,2.85
		c0,0.209,0.051,0.411,0.093,0.608c-8.216,2.094-14.306,9.534-14.306,18.392c0,10.476,8.53,19,19.006,19
		c10.477,0,19.003-8.524,19.003-19C372.997,176.108,367.332,168.868,359.561,166.484z M354,198.9c-7.87,0-14.25-6.38-14.25-14.25
		c0-7.87,6.38-14.25,14.25-14.25s14.25,6.38,14.25,14.25C368.25,192.52,361.87,198.9,354,198.9z"/>
	<path style="fill:#1D1D1B;" d="M369.699,172.3l0.868-0.869l0.434,0.434c0.24,0.24,0.63,0.24,0.868,0c0.24-0.24,0.241-0.629,0-0.868
		l-3.039-3.04c-0.24-0.24-0.629-0.24-0.869,0c-0.24,0.24-0.24,0.628,0,0.868l0.434,0.435l-0.868,0.868L369.699,172.3z"/>
</g>
<g>
	<path style="fill:#1D1D1B;" d="M350.668,334.057c1.644-0.678,3.443-1.057,5.332-1.057c1.273,0,2.501,0.185,3.674,0.503
		c0,0-13.901-12.503-8.52-12.503c0.169,0,0.323,0,0.486,0c0,0,1.852,0,7.72,0c0.163,0,0.317,0,0.486,0
		c3.641,0-2.851,7.832-2.851,7.832l4.811,4.519c3.097-3.164,6.418-8.395,6.418-11.384c0-6.987-6.072-7.967-8.865-7.967
		c-2.793,0-4.253,0-7.72,0c-3.467,0-8.865,1.625-8.865,7.967C342.775,324.909,347.026,330.587,350.668,334.057z"/>
	<path style="fill:#1D1D1B;" d="M356,335c-6.627,0-12,5.373-12,12s5.373,12,12,12c6.627,0,12-5.373,12-12S362.627,335,356,335z
		 M356,355.545c-4.72,0-8.545-3.825-8.545-8.545s3.825-8.545,8.545-8.545c4.72,0,8.545,3.825,8.545,8.545
		S360.72,355.545,356,355.545z"/>
	<polygon style="fill:#1D1D1B;" points="357.123,345 356,341.545 354.877,345 351.245,345 354.184,347.349 353.061,351.017 
		356,348.853 358.939,350.931 357.816,347.363 360.755,345 	"/>
</g>
<g>
	<path style="fill:#1D1D1B;" d="M153.477,341h-20.955c-0.012,0.165-0.023,0.332-0.023,0.5c0,3.509,2.589,6.5,5.782,6.5h9.435
		c3.194,0,5.783-2.991,5.783-6.5C153.5,341.332,153.489,341.165,153.477,341z"/>
	<path style="fill:#1D1D1B;" d="M137.914,339.397c0.779,0.256,1.506,0.435,2.323,0.603c0.061,0.011,0.112-0.022,0.124-0.078
		c0.015-0.057-0.012-0.112-0.05-0.134c-1.557-0.703-3.15-2.165-1.957-5.121c1.129-2.543,0.916-3.859,0.702-4.428
		c0.577,0.346,1.732,1.238,1.443,2.799c0,0.045,0.013,0.089,0.051,0.112c0.037,0.033,0.087,0.022,0.125,0
		c0.038-0.034,3.514-3.022,1.933-6.682c0.791,0.469,2.849,2.108,1.632,5.878c-0.401,1.617,0.702,2.777,0.754,2.834
		c0.035,0.033,0.088,0.043,0.124,0.01c0.05-0.033,0.063-0.088,0.05-0.134c-0.036-0.099-0.864-2.419,0.93-3.703
		c-0.101,0.603-0.251,2.075,0.389,2.878c0.577,0.713,1.131,1.907,0.968,3.055c-0.127,0.815-0.578,1.507-1.382,2.042
		c-0.037,0.034-0.062,0.089-0.037,0.145c0.025,0.043,0.075,0.077,0.125,0.056c1.971-0.681,4.544-2.031,5.674-4.596
		c0.827-1.896,0.727-4.16-0.314-6.747c-3.125-7.061-1.104-9.314-1.091-9.336c0.036-0.045,0.049-0.1,0.023-0.145
		c-0.036-0.045-0.088-0.056-0.137-0.045c-0.038,0.022-4.393,1.908-3.842,6.101c-1.192-1.116-6.765-6.86-3.362-13.596
		c0.024-0.045,0.024-0.1-0.013-0.134c-0.026-0.034-0.076-0.044-0.114-0.022c-0.074,0.033-1.818,0.804-3.2,2.766
		c-1.278,1.796-2.472,4.985-0.864,9.916c0.576,2.331-0.516,4.206-1.105,5.008c0.138-0.558,0.325-1.484,0.301-2.554
		c-0.05-1.573-0.589-3.736-2.911-5.13c-0.038-0.023-0.075-0.023-0.113,0c-0.037,0.033-0.049,0.078-0.037,0.122
		c0,0.034,0.865,4.16-0.653,6.068c-1.305,1.65-2.598,4.505-1.895,7.161C133.083,336.586,134.903,338.282,137.914,339.397z"/>
	<path style="fill:#1D1D1B;" d="M135,352h1c0.984,0,1,0.953,1,0.953V357h12v-4.047c0,0,0.016-0.953,1-0.953h1v-2h-16V352z"/>
</g>
<path style="fill:#1D1D1B;" d="M563.375,163.116c-3.083,0-5.896,1.191-8.07,3.154c-2.172-1.963-4.987-3.154-8.069-3.154
	c-6.867,0-12.436,5.885-12.436,13.144c0,2.683,0.765,5.285,1.991,7.74h4.157l2.713-7.479c0.221-0.608,0.802-1.01,1.454-0.988
	c0.648,0.019,1.209,0.451,1.394,1.072l3.126,10.501l4.327-17.133c0.164-0.65,0.739-1.112,1.409-1.132
	c0.709-0.033,1.273,0.407,1.475,1.046L561.322,184H567c0.828,0,1.5,0.671,1.5,1.5s-0.672,1.5-1.5,1.5h-6.775
	c-0.653,0-1.232-0.423-1.43-1.046l-3.215-10.135l-4.372,17.18c-0.165,0.654-0.747,1.002-1.423,1.002c-0.011,0-0.021,0-0.031,0
	c-0.662,0-1.248-0.303-1.438-0.941l-3.386-11.306l-1.52,4.226c-0.215,0.593-0.779,1.021-1.41,1.021h-3.443H532
	c-0.828,0-1.5,0.671-1.5,1.5s0.672,1.5,1.5,1.5h8.843c6.047,7.148,14.462,11.995,14.462,11.995s20.507-11.795,20.507-25.735
	C575.811,169.001,570.243,163.116,563.375,163.116z"/>
<g>
	<circle style="fill:#1D1D1B;" cx="564.988" cy="85.095" r="4.535"/>
	<path style="fill:#1D1D1B;" d="M569.686,103.75c-5.272,0-9.561,4.289-9.561,9.562c0,5.272,4.289,9.562,9.561,9.562
		c5.273,0,9.562-4.289,9.562-9.562C579.248,108.039,574.959,103.75,569.686,103.75z M569.686,119.873
		c-3.618,0-6.561-2.943-6.561-6.562c0-3.618,2.943-6.562,6.561-6.562c3.618,0,6.562,2.943,6.562,6.562
		C576.248,116.93,573.305,119.873,569.686,119.873z"/>
	<path style="fill:#1D1D1B;" d="M541.686,103.75c-5.272,0-9.561,4.289-9.561,9.562c0,5.272,4.289,9.562,9.561,9.562
		c5.273,0,9.562-4.289,9.562-9.562C551.248,108.039,546.959,103.75,541.686,103.75z M541.686,119.873
		c-3.618,0-6.561-2.943-6.561-6.562c0-3.618,2.943-6.562,6.561-6.562c3.618,0,6.562,2.943,6.562,6.562
		C548.248,116.93,545.305,119.873,541.686,119.873z"/>
	<path style="fill:#1D1D1B;" d="M553.396,103.266l7.45-7.418l3.607,4.419c0.565,0.565,1.053,0.733,1.954,0.733h6.385
		c0.03,0,0.058,0,0.087,0h0.467c1.218,0,2.206-0.781,2.206-2c0-1.219-0.988-2-2.206-2h-6.518c0,0-5.674-7.191-5.755-7.272
		c-2.304-2.305-6.068-2.481-8.408-0.141l-5.65,5.547c-2.341,2.341-2.371,6.054-0.067,8.357c0.387,0.387,7.053,6.659,7.053,6.659
		v7.542c0,1.274,1.226,2.308,2.5,2.308s2.301-1.033,2.301-2.308v-8.036c0-1.016-0.625-1.614-1.348-2.337L553.396,103.266z"/>
</g>
<g>
	<path style="fill:#1D1D1B;" d="M466,85v-2h-7v7h-1v6c0,0-0.584,0-4.584,0S448,97.688,448,100.689c0,0.543,0,1.821,0,3.333
		c-0.193-0.018-0.387-0.032-0.584-0.032c-3.86,0-7,3.421-7,7.626c0,2.243,0.898,4.256,2.317,5.652
		c-0.353,0.056-0.712,0.091-1.083,0.091c-7,0-7.662,2.65-7.662,7.067c0,4.419,8.072,4.419,12.074,3.534
		c4-0.883,12.646-6.184,12.646-10.602c0-4.418,7.292-7.951,7.292-7.951V89.277L468.416,85H466z M442.416,111.616
		c0-3.103,2.243-5.626,5-5.626c0.198,0,0.392,0.017,0.584,0.042c0,1.177,0,2.364,0,3.376c0,1.889-5,1.703-5,1.703v0.947
		c1,0.883,5,0,5,0c0,1.734-1.211,3.464-3.036,4.456C443.445,115.548,442.416,113.717,442.416,111.616z M461,107c0,1.104-0.896,2-2,2
		h-3c-1.105,0-2-0.896-2-2v-7c0-1.104,0.895-2,2-2h3c1.104,0,2,0.896,2,2V107z"/>
	<path style="fill:#1D1D1B;" d="M463.212,113.308c0,0.786-0.962,1.956-2.868,1.956c-0.625,0-0.791,1.857-0.791,1.857
		S465,116,465,119h1v-7.875C466,111.125,463.212,112.521,463.212,113.308z"/>
	<path style="fill:#1D1D1B;" d="M456.094,99h-0.188c-0.5,0-0.906,0.406-0.906,0.906v7.188c0,0.5,0.406,0.906,0.906,0.906h0.188
		c0.5,0,0.906-0.406,0.906-0.906v-7.188C457,99.406,456.594,99,456.094,99z"/>
	<path style="fill:#1D1D1B;" d="M459.094,99h-0.188c-0.5,0-0.906,0.406-0.906,0.906v7.188c0,0.5,0.406,0.906,0.906,0.906h0.188
		c0.5,0,0.906-0.406,0.906-0.906v-7.188C460,99.406,459.594,99,459.094,99z"/>
</g>
<g>
	<path style="fill:#1D1D1B;" d="M162,90h-5.073c-1.32-5.193-6.013-9.041-11.617-9.041S135.012,84.807,133.692,90H129
		c-3.001,0-5.459,2.001-5,5l4,25c0.583,3,2.239,5,5,5h26c2.761,0,4.667-1.708,5-5l3-25C167.374,91.876,165.083,90,162,90z
		 M146,102.924v15.326c0,0.414-0.336,0.75-0.75,0.75h-0.5c-0.414,0-0.75-0.336-0.75-0.75v-15.387
		c-4.902-0.643-8.69-4.826-8.69-9.904c0-5.522,4.477-10,10-10c5.523,0,10,4.478,10,10C155.31,98.249,151.199,102.568,146,102.924z"
		/>
	<path style="fill:#1D1D1B;" d="M142.297,91.613c-0.641,1.575,0.115,3.371,1.69,4.012c1.575,0.643,3.371-0.115,4.012-1.689
		c0.943-2.314,0.196-8.643,0.196-8.643S143.49,88.686,142.297,91.613z M147.168,93.598c-0.455,1.115-1.727,1.652-2.843,1.197
		c-1.116-0.455-1.652-1.727-1.197-2.843c0.455-1.116,1.727-1.651,2.843-1.197C147.086,91.209,147.623,92.481,147.168,93.598z"/>
</g>
<g>
	<path style="fill:#1D1D1B;" d="M658.698,166.394c1.513-1.896,2.662-4.572,2.246-7.309c-2.472,0.165-5.363,1.702-7.052,3.702
		c-1.531,1.817-2.797,4.511-2.305,7.13C654.287,169.998,657.078,168.425,658.698,166.394z"/>
	<path style="fill:#1D1D1B;" d="M671.335,175.806c-2.284-3.516-5.909-5.573-9.299-5.573c-3.448,0-5.665,1.891-8.517,1.891
		c-0.012,0-0.131-0.002-0.131-0.002s-0.015,0.002-0.025,0.002c-2.852,0-5.016-1.891-8.465-1.891c-3.388,0-6.988,2.058-9.271,5.573
		c-3.213,4.946-2.667,14.252,2.543,22.182c1.863,2.835,5.143,6.023,8.397,6.053c2.89,0.026,2.941-1.045,6.822-1.068
		c3.879,0.023,4.031,1.095,6.921,1.068c3.254-0.029,6.633-3.218,8.496-6.053C674.015,190.058,674.549,180.752,671.335,175.806z
		 M647.141,201.363c-2.738-0.024-5.499-2.708-7.066-5.095c-4.385-6.674-4.846-14.505-2.141-18.669
		c1.922-2.959,4.951-4.69,7.803-4.69c0.52,0,0.995,0.062,1.454,0.146c-1.755,0.906-3.377,2.33-4.599,4.212
		c-3.07,4.726-2.548,13.614,2.428,21.189c0.643,0.977,1.462,1.996,2.391,2.902C647.322,201.361,647.236,201.364,647.141,201.363z"/>
	<path style="fill:#1D1D1B;" d="M649.458,168.775l1.513,0.616c-0.729-3.065-6.698-10.677-6.698-10.677
		c0.132,2.115-1.862,2.845-1.862,2.845C646.739,162.824,649.458,168.775,649.458,168.775z"/>
</g>
<g>
	<path style="fill:#1D1D1B;" d="M467,199h-27v-30h5v2h15v-2h7v3.111c2,0.28,4,0.968,5,1.982V168.5c0-2.761-2.113-4.5-4.875-4.5H460
		v-2h-4.551c0.028-0.163,0.051-0.329,0.051-0.5c0-1.654-1.346-3-3-3s-3,1.346-3,3c0,0.171,0.023,0.337,0.051,0.5H445v2h-4.875
		c-2.762,0-5.125,1.739-5.125,4.5v30c0,2.762,2.363,5.5,5.125,5.5h27c2.762,0,4.875-2.738,4.875-5.5v-4.676
		c-1,1.015-3,1.702-5,1.982V199z M450.5,161.5c0-1.102,0.897-2,2-2s2,0.898,2,2c0,0.174-0.029,0.339-0.071,0.5h-3.857
		C450.529,161.839,450.5,161.674,450.5,161.5z"/>
	<path style="fill:#1D1D1B;" d="M465.31,173.959c-5.523,0-10,4.477-10,10c0,5.523,4.477,10,10,10c5.522,0,10-4.477,10-10
		C475.31,178.436,470.832,173.959,465.31,173.959z M465.31,191.959c-4.411,0-8-3.589-8-8s3.589-8,8-8c4.411,0,8,3.589,8,8
		S469.721,191.959,465.31,191.959z"/>
	<path style="fill:#1D1D1B;" d="M470.176,178.721c-0.563-0.02-1.503-0.02-2.197,0.808c-0.696,0.826-2.855,3.889-3.832,5.936
		c0,0-0.751-1.822-0.958-1.991c-0.207-0.169-0.883-0.413-1.615,0c-0.733,0.414-1.259,0.582-1.015,1.128
		c0.244,0.544,1.615,3.212,1.991,4.376c0,0,0.15,0.301,0.375,0.357c0.227,0.055,1.785-0.133,2.255-0.959s3.513-7.851,5.128-9.11
		C470.495,179.153,470.684,178.908,470.176,178.721z"/>
</g>
<g>
	<path style="fill:#1D1D1B;" d="M124,202.5c0,0.828,0.672,1.5,1.5,1.5s1.5-0.672,1.5-1.5v-18.456c-1.637-0.119-2.701-0.212-3-0.239
		V202.5z"/>
	<path style="fill:#1D1D1B;" d="M166,202.5c0,0.828,0.672,1.5,1.5,1.5s1.5-0.672,1.5-1.5v-18.651c-0.598,0.051-1.628,0.134-3,0.231
		V202.5z"/>
	<path style="fill:#1D1D1B;" d="M169.156,161.004c-0.105,0.011-10.642,0.996-22.531,0.996s-22.488-0.985-22.594-0.996L123,160.902
		v21.009l0.907,0.085c0.108,0.01,10.953,1.004,22.843,1.004s22.484-0.994,22.593-1.004l0.657-0.085v-21.009L169.156,161.004z
		 M135.015,169.935l-3.062-0.207l-0.123,1.821l2.861,0.192l-0.099,1.467l-2.861-0.193l-0.217,3.205l-1.797-0.122l0.537-7.969
		l4.86,0.327L135.015,169.935z M137.707,176.574l-1.8-0.086l0.389-7.98l1.8,0.088L137.707,176.574z M145.861,176.817l-1.897-0.044
		l-1.633-3.021c-0.454-0.865-0.963-1.753-1.32-2.753h-0.047c0.034,1,0.03,2.093,0,3.396l-0.058,2.354l-1.659-0.062l0.189-8.001
		l2.11,0.042l1.59,2.734c0.454,0.854,0.893,2.537,1.238,2.537h0.024c-0.082-1-0.093-1.908-0.063-3.115l0.055-2.21l1.66,0.097
		L145.861,176.817z M147.461,176.794l-0.05-7.99l1.802-0.011l0.05,7.989L147.461,176.794z M152.752,176.829
		c-0.912,0.028-1.821-0.195-2.279-0.43l0.323-1.493c0.481,0.234,1.248,0.461,2.019,0.438c0.831-0.023,1.258-0.382,1.242-0.903
		c-0.014-0.497-0.402-0.77-1.372-1.074c-1.343-0.435-2.241-1.143-2.276-2.305c-0.04-1.363,1.079-2.429,2.951-2.484
		c0.913-0.027,1.569,0.13,2.052,0.343l-0.36,1.457c-0.312-0.145-0.9-0.354-1.671-0.329c-0.782,0.022-1.151,0.402-1.14,0.805
		c0.017,0.51,0.461,0.722,1.517,1.082c1.427,0.479,2.1,1.195,2.133,2.32C155.929,175.595,154.945,176.763,152.752,176.829z
		 M161.917,176.277l-0.2-3.338l-2.972,0.178l0.2,3.34l-1.799,0.107l-0.478-7.979l1.798-0.109l0.185,3.068l2.972-0.179l-0.184-3.066
		l1.8-0.108l0.479,7.98L161.917,176.277z"/>
</g>
<g>
	<path style="fill:#1D1D1B;" d="M234.432,322.647c6.241,0.288,7.591-4.073,7.591-4.073s-0.197-0.805-4.242-0.57
		c-2.494,0.144-3.874,1.803-4.561,3.056c-0.477,0.364-1.149,0.953-1.886,1.797c-0.074-2.208-1.368-3.406-1.368-3.406
		s-0.688-0.145-1.998,3.033c-0.823,1.998-0.018,3.691,0.698,4.67c-0.482,1.115-0.907,2.376-1.207,3.83
		c-1.357-2.7-3.75-2.996-3.75-2.996s-0.643,0.286,0.162,3.63c0.481,1.996,1.99,2.903,3.13,3.308
		c-0.023,0.604-0.034,1.221-0.016,1.869c0.014,0.476,0.053,0.935,0.102,1.387c-2.201-2.793-4.951-2.291-4.951-2.291
		s-0.529,0.466,1.238,3.416c1.197,1.998,3.239,2.267,4.432,2.225c0.269,0.818,0.592,1.589,0.96,2.312
		c-3.422-1.823-5.822,0.006-5.822,0.006s-0.262,0.653,2.644,2.494c1.87,1.185,3.718,0.63,4.796,0.08
		c0.884,1.17,1.861,2.175,2.841,3.024c-3.924-0.497-5.513,2.127-5.513,2.127s-0.004,0.704,3.373,1.353
		c2.179,0.417,3.696-0.781,4.496-1.69c2.098,1.393,3.765,2.024,3.81,2.041c0.114,0.042,0.23,0.062,0.345,0.062
		c0.406,0,0.789-0.25,0.938-0.654c0.191-0.519-0.074-1.093-0.592-1.284c-0.15-0.056-1.458-0.554-3.126-1.606
		c1.107-0.482,2.727-1.564,2.991-3.779c0.407-3.414-0.267-3.623-0.267-3.623s-3.974,0.955-3.848,6.641
		c-1.025-0.744-2.111-1.68-3.11-2.827c1.126-0.273,2.476-0.948,3.207-2.583c1.404-3.139,0.823-3.538,0.823-3.538
		s-3.641-0.232-5.366,4.359c-0.687-1.051-1.275-2.235-1.699-3.564c1.197-0.182,2.877-0.789,3.726-2.686
		c1.403-3.14,0.823-3.539,0.823-3.539s-3.303-0.205-5.107,3.742c-0.073-0.536-0.125-1.088-0.142-1.662
		c-0.021-0.69-0.011-1.347,0.018-1.979c1.176,0.137,2.765-0.026,4.04-1.414c2.328-2.531,1.903-3.095,1.903-3.095
		s-2.77-1.133-5.59,1.476c0.27-1.435,0.665-2.673,1.124-3.743c1.152,0.378,2.965,0.604,4.592-0.748
		c2.643-2.197,2.298-2.812,2.298-2.812s-2.165-1.238-4.933,0.226C233.231,323.643,233.968,322.999,234.432,322.647z"/>
	<path style="fill:#1D1D1B;" d="M261.608,343.842c0.368-0.724,0.691-1.494,0.96-2.312c1.192,0.042,3.234-0.227,4.432-2.225
		c1.768-2.95,1.238-3.416,1.238-3.416s-2.75-0.502-4.951,2.291c0.049-0.452,0.088-0.911,0.102-1.387
		c0.018-0.648,0.007-1.266-0.016-1.869c1.14-0.404,2.648-1.311,3.13-3.308c0.805-3.344,0.162-3.63,0.162-3.63
		s-2.393,0.296-3.75,2.996c-0.3-1.454-0.725-2.715-1.207-3.83c0.716-0.979,1.521-2.672,0.698-4.67
		c-1.311-3.179-1.998-3.033-1.998-3.033s-1.294,1.198-1.368,3.406c-0.838-0.96-1.593-1.587-2.069-1.934
		c-0.686-1.201-2.015-2.719-4.362-2.854c-3.928-0.228-4.12,0.555-4.12,0.555s1.31,4.229,7.362,3.955
		c0.454,0.335,1.24,1.001,2.085,2.068c-2.767-1.464-4.933-0.226-4.933-0.226s-0.345,0.614,2.298,2.812
		c1.627,1.352,3.438,1.126,4.592,0.749c0.458,1.069,0.853,2.308,1.124,3.742c-2.82-2.607-5.59-1.476-5.59-1.476
		s-0.425,0.563,1.903,3.095c1.275,1.388,2.864,1.551,4.04,1.414c0.03,0.632,0.039,1.289,0.019,1.979
		c-0.017,0.574-0.068,1.126-0.142,1.662c-1.806-3.947-5.108-3.742-5.108-3.742s-0.58,0.399,0.823,3.539
		c0.849,1.896,2.528,2.504,3.726,2.686c-0.424,1.329-1.013,2.514-1.699,3.564c-1.726-4.591-5.366-4.359-5.366-4.359
		s-0.581,0.399,0.823,3.538c0.731,1.635,2.081,2.31,3.207,2.583c-0.999,1.147-2.085,2.083-3.11,2.827
		c0.126-5.685-3.848-6.641-3.848-6.641s-0.674,0.209-0.267,3.623c0.265,2.215,1.884,3.297,2.991,3.779
		c-1.668,1.053-2.976,1.551-3.126,1.606c-0.518,0.191-0.783,0.766-0.592,1.284c0.148,0.404,0.531,0.654,0.938,0.654
		c0.114,0,0.23-0.02,0.345-0.062c0.045-0.017,1.712-0.648,3.81-2.041c0.8,0.908,2.317,2.107,4.496,1.69
		c3.377-0.648,3.373-1.353,3.373-1.353s-1.589-2.624-5.513-2.127c0.979-0.85,1.957-1.854,2.841-3.024
		c1.078,0.55,2.926,1.104,4.796-0.08c2.905-1.841,2.644-2.494,2.644-2.494S265.03,342.019,261.608,343.842z"/>
	<circle style="fill:#1D1D1B;" cx="245.188" cy="353.011" r="2.494"/>
</g>
<g>
	<path style="fill:#1D1D1B;" d="M675.977,265.543c-1.221,1.066-2.737,1.792-4.258,2.318c-2.047,0.697-4.186,1.066-6.326,1.283
		c-4.292,0.39-8.608,0.163-12.872-0.433c-2.134-0.311-4.255-0.71-6.371-1.316c-0.514-0.146-1.089-0.342-1.573-0.52
		c-0.451-0.163-0.916-0.299-1.393-0.401c-0.956-0.198-1.945-0.302-2.949-0.349c-3.419-0.13-6.925,0.448-10.429,1.222
		c-0.067,0.586-0.117,1.146-0.117,1.652c0,2.77,3.686,3.999,3.686,3.999s6.759,0,8.602,0c1.844,0,3.072-1.922,6.145-1.922
		c1.718,0,5.164,0.697,8.62,1.312c-0.003,0.019-0.01,0.036-0.012,0.055c-0.056,0.763,0.72,1.457,1.735,1.553
		c0.927,0.088,1.723-0.359,1.898-1.017c0.733,0.103,1.433,0.187,2.084,0.244c0.3,0.458,0.922,0.776,1.648,0.776
		c0.733,0,1.361-0.323,1.658-0.788c0.758-0.087,1.532-0.237,2.301-0.439c0.351,0.417,1.016,0.64,1.745,0.522
		c1.008-0.162,1.747-0.908,1.65-1.664c-0.007-0.059-0.028-0.112-0.045-0.168c1.91-1.03,3.523-2.488,4.364-4.385
		C676.019,266.519,676.073,266.01,675.977,265.543z"/>
	<path style="fill:#1D1D1B;" d="M640.282,264.077c1.121,0.005,2.258,0.126,3.373,0.417c0.557,0.145,1.111,0.322,1.648,0.551
		c0.502,0.222,0.925,0.394,1.424,0.572c1.937,0.691,3.987,1.184,6.045,1.579c4.127,0.77,8.352,1.167,12.553,0.993
		c2.098-0.087,4.2-0.323,6.221-0.88c1.545-0.434,3.084-1.071,4.342-2.076c-0.999-2.729-7.42-3.892-11.036-5.032
		c-0.982,0.809-3.227,2.084-3.227,2.084s1.218-1.356,1.67-2.037c0.114-0.171,0.259-0.34,0.414-0.506
		c-1.029-0.509-2.165-1.295-3.325-2.224c-1.867,1.563-4.903,4.058-4.903,4.058s2.708-3.356,3.52-4.575
		c0.095-0.142,0.185-0.271,0.276-0.404c-0.903-0.78-1.806-1.616-2.669-2.461c-2.987,2.377-7.87,6.022-7.87,6.022
		s4.098-4.405,5.264-6.157c0.38-0.571,0.686-1.071,0.954-1.529c-1.636-1.693-3.004-3.232-3.76-4.083
		c-2.149-2.422-3.685,0-3.685,2.769c0,2.769-2.459,5.539-6.759,5.539c-4.302,0-5.53-4.154-6.759-4.846
		c-1.23-0.692-3.072,0.692-3.072,5.539c0,3.557-0.556,5.955-0.909,8.448c1.248-0.575,2.338-0.716,3.892-1.099
		C636.012,264.217,638.038,264.074,640.282,264.077z"/>
</g>
<g>
	<path style="fill:#1D1D1B;" d="M360,247c0-2.209-1.791-4-4-4h-1v-3h1v-2h-8v2h1v3h-1c-2.209,0-4,1.791-4,4v1h16V247z"/>
	<path style="fill:#1D1D1B;" d="M363.31,253.959c-5.523,0-10,4.477-10,10c0,5.523,4.477,10,10,10c5.522,0,10-4.477,10-10
		C373.31,258.436,368.832,253.959,363.31,253.959z M363.31,271.959c-4.411,0-8-3.589-8-8c0-4.411,3.589-8,8-8c4.411,0,8,3.589,8,8
		C371.31,268.37,367.721,271.959,363.31,271.959z"/>
	<polygon style="fill:#1D1D1B;" points="366.852,257.819 359.734,264 362.276,264 359.1,269.695 367.359,263 364.817,263 	"/>
	<polygon style="fill:#1D1D1B;" points="366.882,258.025 366.852,258.099 366.936,258.025 	"/>
	<path style="fill:#1D1D1B;" d="M351.312,264c0-5.875,4.158-10.778,9.692-11.93c0.253-0.647,0.416-1.344,0.468-2.07h-18.945
		c0.133,1.873,0.994,3.556,2.276,4.66c-1.825,1.294-3.135,3.253-3.603,5.522c0.474,0.252,0.8,0.745,0.8,1.319
		c0,0.642-0.408,1.18-0.974,1.394c-0.26,0.084-0.452,0.32-0.452,0.609c0,0.295,0.201,0.534,0.47,0.612
		c0.556,0.219,0.956,0.75,0.956,1.385c0,0.652-0.419,1.202-1,1.408v0.006c-0.247,0.091-0.426,0.324-0.426,0.604
		c0,0.312,0.224,0.559,0.516,0.622c0.53,0.23,0.91,0.744,0.91,1.359c0,0.652-0.419,1.201-1,1.408
		c-0.247,0.092-0.426,0.324-0.426,0.604c0,0.306,0.215,0.549,0.499,0.618c0.54,0.227,0.927,0.746,0.927,1.369
		c0,0.652-0.419,1.201-1,1.408V276c0,2.762,2.239,5,5,5h12c2.706,0,4.896-2.153,4.983-4.839
		C356.494,275.889,351.312,270.557,351.312,264z"/>
</g>
<path style="fill:#1D1D1B;" d="M378.958,410.871c-1.38-1.299-2.76-2.598-4.14-3.894c-0.461-0.43-1.082-0.311-1.4,0.246
	c-0.822,1.427-1.726,2.765-2.692,4.024l2.074,0.531l-0.541,1.188l-1.143-0.293l0.592,1.021l-0.997,0.843l-1.11-1.915
	c-0.774,0.909-1.57,1.784-2.415,2.588c0.672-0.983,1.303-2.006,1.907-3.056l-2.309-0.592l0.542-1.188l1.145,0.293l-0.593-1.021
	l0.998-0.843l1.046,1.806c1.27-2.407,2.387-4.95,3.288-7.641c0.261-0.778,0.029-1.617-0.495-1.859
	c-1.578-0.746-3.155-1.491-4.732-2.237c-0.525-0.244-1.086,0.083-1.269,0.72c-0.5,1.717-1.103,3.377-1.789,4.977l2.456,0.274
	l-0.371,1.251l-1.173-0.132l0.727,0.931l-0.869,0.973l-1.436-1.835c-0.425,0.893-0.868,1.77-1.349,2.615
	c0.28-0.964,0.523-1.944,0.759-2.926l-2.277-0.257l0.372-1.25l1.174,0.131l-0.728-0.93l0.871-0.974l1.023,1.309
	c0.675-3.245,1.137-6.567,1.323-9.942c0.054-0.968-0.441-1.761-1.08-1.769c-1.926-0.042-3.851-0.085-5.778-0.123
	c-0.639-0.01-1.149,0.616-1.162,1.395c-0.038,2.21-0.22,4.406-0.519,6.573l1.792-0.371l0.035,1.305l-1.155,0.239l0.98,0.657
	l-0.526,1.197l-1.454-0.976c-0.216,1.207-0.456,2.405-0.751,3.585c0.068-1.345,0.084-2.692,0.073-4.04l-0.087-0.059l-2.617,0.541
	l-0.035-1.306l1.155-0.238l-0.98-0.659l0.526-1.195l1.997,1.341c-0.086-2.797-0.321-5.59-0.749-8.354
	c-0.148-0.965-0.799-1.569-1.424-1.358c-1.89,0.624-3.778,1.247-5.667,1.871c-0.628,0.212-0.995,0.999-0.845,1.764
	c0.214,1.1,0.821,3.189,1.462,5.68c-4.132,2.006-7.75,4.916-10.614,8.498c-1.597-1.863-4.279-3.665-5.746-2.472
	c-1.697,1.376-1.973,4.83-0.389,7.491c2.697,4.506,9.988,22.064,22.471,22.043c13.471-0.024,21.409-17.035,24.698-22.204
	C379.463,412.201,379.419,411.297,378.958,410.871z M357.393,426.281l-1.066,0.044c-0.022-0.534-0.084-1.052-0.188-1.543
	l1.045-0.218C357.299,425.112,357.368,425.69,357.393,426.281z M357.384,427.432c-0.013,0.268-0.036,0.545-0.068,0.829l-1.059-0.117
	c0.029-0.263,0.05-0.518,0.062-0.767L357.384,427.432z M355.465,420.902l-0.824,0.674c-0.323-0.391-0.688-0.749-1.09-1.063
	l0.659-0.84C354.672,420.034,355.094,420.448,355.465,420.902z M349.811,404.706c0.184,0.939,0.343,1.879,0.466,2.801
	c-2.812,1.514-5.348,3.489-7.503,5.838c-0.493-0.483-0.972-0.974-1.42-1.447C343.658,409.132,346.673,406.544,349.811,404.706z
	 M342.589,426.754c-0.388-0.365-0.593-0.591-0.593-0.591l0.787-0.72c0.007,0.008,0.193,0.211,0.538,0.534L342.589,426.754z
	 M344.711,428.51c-0.445-0.326-0.883-0.67-1.299-1.022l0.69-0.815c0.397,0.337,0.814,0.666,1.239,0.976L344.711,428.51z
	 M347.03,429.998c-0.472-0.262-0.948-0.553-1.414-0.859l0.589-0.892c0.443,0.293,0.896,0.57,1.346,0.821L347.03,429.998z
	 M346.244,416.224c1.289-1.285,2.72-2.485,4.216-3.525c-0.216,1.931-0.868,3.412-2.206,4.037
	C347.779,416.959,347.068,416.725,346.244,416.224z M349.527,431.181c-0.506-0.197-1.017-0.423-1.519-0.667l0.469-0.958
	c0.475,0.233,0.958,0.443,1.437,0.631L349.527,431.181z M352.183,431.981c-0.534-0.115-1.075-0.261-1.61-0.431l0.325-1.015
	c0.502,0.16,1.009,0.296,1.508,0.401L352.183,431.981z M352.71,419.945c-0.376-0.212-0.63-0.305-0.633-0.305l0.353-1.008
	c0.035,0.014,0.346,0.125,0.807,0.387L352.71,419.945z M354.945,432.317c-0.553-0.017-1.113-0.065-1.666-0.143l0.149-1.056
	c0.515,0.073,1.035,0.117,1.549,0.133L354.945,432.317z M355.225,422.409l0.914-0.549c0.297,0.494,0.546,1.027,0.738,1.586
	l-1.008,0.348C355.7,423.304,355.484,422.837,355.225,422.409z M356.062,432.307l-0.05-1.066c0.517-0.022,1.038-0.078,1.544-0.161
	l0.171,1.053C357.18,432.223,356.62,432.282,356.062,432.307z M358.821,431.915l-0.25-1.037c0.498-0.121,0.999-0.272,1.49-0.448
	l0.361,1.002C359.895,431.624,359.357,431.785,358.821,431.915z M361.457,431.02l-0.431-0.975c0.466-0.206,0.936-0.44,1.399-0.699
	l0.521,0.932C362.453,430.553,361.952,430.802,361.457,431.02z M363.895,429.708l-0.574-0.898c0.428-0.274,0.863-0.578,1.289-0.899
	l0.643,0.851C364.805,429.101,364.348,429.42,363.895,429.708z M366.123,428.068l-0.684-0.817c0.197-0.164,0.394-0.335,0.592-0.512
	l0.711,0.796C366.535,427.718,366.328,427.897,366.123,428.068z"/>
<path style="fill:#1D1D1B;" d="M246.614,393.942c-10.221,0-18.505,8.283-18.505,18.502c0,10.219,8.284,18.501,18.505,18.501
	c10.218,0,18.502-8.282,18.502-18.501C265.116,402.224,256.833,393.942,246.614,393.942z M245.107,399.147
	c-0.591,0.312-1.202,0.612-1.806,0.888l-0.036-0.569c0.539-0.262,1.076-0.541,1.61-0.833L245.107,399.147z M241.066,397.173
	l0.098-0.491l1.766,0.322l0.09,0.56C242.369,397.416,241.722,397.286,241.066,397.173z M243.188,398.843l0.051,0.568
	c-0.644-0.197-1.28-0.372-1.921-0.531l0.128-0.479C242.025,398.535,242.61,398.681,243.188,398.843z M241.22,405.23
	c0.506,0.312,1.007,0.647,1.494,0.995l-0.145,0.549c-0.528-0.403-1.081-0.786-1.63-1.145L241.22,405.23z M241.256,403.974
	l0.242-0.425c0.537,0.267,1.057,0.548,1.577,0.853l-0.091,0.561C242.42,404.612,241.84,404.282,241.256,403.974z M241.42,402.292
	l0.207-0.449c0.549,0.219,1.098,0.456,1.646,0.713l-0.044,0.567C242.628,402.824,242.034,402.548,241.42,402.292z M241.438,400.589
	l0.166-0.464c0.571,0.174,1.135,0.365,1.7,0.572l0.007,0.569C242.696,401.022,242.06,400.797,241.438,400.589z M244.867,397.162
	c-0.575,0.359-1.144,0.698-1.737,1.022l-0.078-0.565c0.517-0.3,1.041-0.619,1.544-0.946L244.867,397.162z M244.188,394.747
	l0.303,0.467c-0.553,0.394-1.102,0.773-1.663,1.135l-0.12-0.558C243.21,395.453,243.702,395.104,244.188,394.747z M240.763,394.977
	l1.783,0.208l0.131,0.553c-0.658-0.102-1.318-0.189-1.981-0.26L240.763,394.977z M240.791,406.873
	c0.469,0.359,0.943,0.738,1.393,1.132l-0.198,0.533c-0.489-0.45-1-0.884-1.511-1.294L240.791,406.873z M240.207,408.469
	c0.434,0.4,0.866,0.823,1.278,1.256l-0.245,0.513c-0.444-0.493-0.914-0.974-1.384-1.43L240.207,408.469z M239.473,410.003
	c0.396,0.442,0.785,0.901,1.156,1.372l-0.292,0.486c-0.399-0.532-0.817-1.054-1.247-1.552L239.473,410.003z M238.599,411.469
	c0.357,0.478,0.696,0.967,1.028,1.47l-0.332,0.46c-0.355-0.569-0.72-1.119-1.104-1.658L238.599,411.469z M237.596,412.859
	c0.311,0.505,0.614,1.025,0.898,1.554l-0.371,0.43c-0.303-0.594-0.623-1.177-0.958-1.746L237.596,412.859z M236.474,414.166
	c0.271,0.53,0.527,1.07,0.771,1.62l-0.403,0.403c-0.258-0.62-0.531-1.223-0.818-1.819L236.474,414.166z M235.25,415.387
	c0.225,0.549,0.443,1.109,0.644,1.674l-0.432,0.371c-0.212-0.635-0.436-1.259-0.68-1.874L235.25,415.387z M233.931,416.516
	c0.188,0.569,0.361,1.141,0.524,1.72l-0.459,0.336c-0.166-0.647-0.348-1.286-0.544-1.918L233.931,416.516z M232.533,417.552
	c0.145,0.578,0.28,1.162,0.398,1.75l-0.479,0.306c-0.119-0.657-0.255-1.308-0.406-1.951L232.533,417.552z M231.068,418.481
	c0.104,0.589,0.195,1.179,0.269,1.775l-0.501,0.265c-0.064-0.663-0.152-1.321-0.257-1.975L231.068,418.481z M231.794,422.148
	c-0.525-0.427-1.038-0.87-1.518-1.335l0.515-0.244c0.45,0.398,0.916,0.785,1.393,1.163L231.794,422.148z M233.543,421.148
	c-0.553-0.386-1.094-0.785-1.618-1.199l0.489-0.292c0.481,0.359,0.973,0.71,1.476,1.049L233.543,421.148z M235.193,420.033
	c-0.578-0.349-1.146-0.708-1.698-1.08l0.465-0.328c0.506,0.326,1.023,0.637,1.547,0.943L235.193,420.033z M236.76,418.805
	c-0.602-0.305-1.192-0.626-1.77-0.959l0.442-0.359c0.525,0.287,1.065,0.567,1.609,0.828L236.76,418.805z M238.237,417.459
	c-0.623-0.258-1.235-0.533-1.836-0.825l0.415-0.391c0.546,0.249,1.102,0.486,1.666,0.707L238.237,417.459z M239.615,416.003
	c-0.642-0.211-1.273-0.434-1.896-0.68l0.382-0.421c0.567,0.205,1.138,0.395,1.719,0.573L239.615,416.003z M240.878,414.431
	c-0.657-0.152-1.309-0.33-1.948-0.519l0.346-0.452c0.578,0.156,1.172,0.301,1.764,0.426L240.878,414.431z M242.005,412.752
	c-0.67-0.095-1.332-0.209-1.987-0.348l0.308-0.48c0.591,0.108,1.192,0.196,1.791,0.268L242.005,412.752z M242.98,410.973
	c-0.678-0.036-1.343-0.087-2.009-0.166l0.262-0.505c0.602,0.052,1.199,0.087,1.812,0.102L242.98,410.973z M243.79,409.106
	c-0.682,0.028-1.346,0.04-2.016,0.024l0.212-0.529c0.604-0.004,1.204-0.028,1.811-0.069L243.79,409.106z M242.412,407.382
	l0.162-0.544c0.604-0.059,1.196-0.142,1.799-0.241l0.044,0.572C243.742,407.26,243.083,407.336,242.412,407.382z M242.884,405.582
	l0.111-0.557c0.59-0.118,1.181-0.253,1.767-0.406l0.097,0.562C244.2,405.338,243.547,405.474,242.884,405.582z M243.185,403.747
	l0.061-0.565c0.574-0.169,1.15-0.359,1.725-0.561l0.145,0.55C244.481,403.384,243.829,403.578,243.185,403.747z M243.324,401.892
	l0.007-0.568c0.564-0.219,1.117-0.453,1.67-0.704l0.197,0.531C244.572,401.42,243.951,401.668,243.324,401.892z M261.196,402.68
	c0.523,0.428,1.036,0.869,1.518,1.335l-0.516,0.244c-0.448-0.398-0.914-0.785-1.391-1.162L261.196,402.68z M257.796,404.795
	c0.581,0.35,1.145,0.709,1.7,1.082l-0.466,0.327c-0.508-0.325-1.02-0.638-1.544-0.944L257.796,404.795z M256.23,406.024
	c0.599,0.306,1.192,0.625,1.772,0.959l-0.441,0.358c-0.527-0.286-1.066-0.565-1.61-0.828L256.23,406.024z M254.75,407.37
	c0.624,0.258,1.237,0.531,1.839,0.824l-0.415,0.391c-0.544-0.249-1.105-0.485-1.669-0.707L254.75,407.37z M253.373,408.825
	c0.646,0.212,1.276,0.435,1.898,0.681l-0.383,0.42c-0.568-0.205-1.135-0.394-1.72-0.573L253.373,408.825z M252.115,410.397
	c0.655,0.153,1.31,0.331,1.945,0.52l-0.348,0.451c-0.576-0.155-1.168-0.301-1.76-0.425L252.115,410.397z M250.986,412.077
	c0.671,0.094,1.33,0.209,1.985,0.348l-0.305,0.48c-0.596-0.109-1.191-0.197-1.796-0.268L250.986,412.077z M250.01,413.856
	c0.679,0.036,1.343,0.087,2.01,0.166l-0.26,0.505c-0.604-0.054-1.204-0.087-1.811-0.102L250.01,413.856z M249.201,415.723
	c0.681-0.027,1.347-0.039,2.018-0.023l-0.213,0.528c-0.607,0.006-1.204,0.029-1.816,0.07L249.201,415.723z M250.578,417.447
	l-0.162,0.544c-0.601,0.06-1.198,0.143-1.798,0.241l-0.047-0.572C249.247,417.568,249.907,417.493,250.578,417.447z
	 M251.571,422.537l-0.205,0.448c-0.55-0.219-1.1-0.456-1.649-0.713l0.044-0.566C250.362,422.005,250.957,422.281,251.571,422.537z
	 M249.913,420.426l0.095-0.56c0.564,0.352,1.143,0.68,1.728,0.99l-0.244,0.423C250.955,421.012,250.436,420.73,249.913,420.426z
	 M251.555,424.24l-0.168,0.463c-0.574-0.173-1.138-0.365-1.7-0.572l-0.006-0.568C250.295,423.808,250.931,424.032,251.555,424.24z
	 M251.673,425.948l-0.13,0.48c-0.577-0.134-1.164-0.281-1.741-0.443l-0.051-0.568C250.395,425.614,251.031,425.79,251.673,425.948z
	 M251.925,427.655l-0.099,0.491l-1.767-0.32l-0.09-0.56C250.62,427.412,251.266,427.543,251.925,427.655z M251.768,419.598
	c-0.504-0.312-1.006-0.645-1.491-0.994l0.146-0.549c0.524,0.402,1.079,0.785,1.626,1.145L251.768,419.598z M250.106,419.246
	l-0.11,0.557c-0.589,0.118-1.183,0.252-1.767,0.406l-0.1-0.562C248.789,419.491,249.444,419.354,250.106,419.246z M249.802,421.081
	l-0.059,0.564c-0.572,0.17-1.149,0.359-1.725,0.562l-0.145-0.551C248.509,421.444,249.159,421.251,249.802,421.081z
	 M249.665,422.936l-0.008,0.569c-0.564,0.218-1.115,0.454-1.668,0.703l-0.196-0.529
	C248.418,423.409,249.037,423.161,249.665,422.936z M247.881,425.682c0.594-0.312,1.203-0.611,1.808-0.888l0.035,0.569
	c-0.537,0.262-1.074,0.54-1.609,0.832L247.881,425.682z M248.124,427.667c0.575-0.359,1.146-0.698,1.734-1.022l0.081,0.564
	c-0.517,0.302-1.04,0.619-1.545,0.947L248.124,427.667z M248.803,430.082l-0.302-0.468c0.549-0.393,1.1-0.772,1.661-1.134
	l0.118,0.558C249.783,429.375,249.286,429.724,248.803,430.082z M252.225,429.852l-1.779-0.208l-0.131-0.552
	c0.655,0.103,1.318,0.19,1.977,0.261L252.225,429.852z M252.198,417.955c-0.471-0.357-0.939-0.737-1.389-1.132l0.195-0.531
	c0.487,0.449,1.001,0.883,1.512,1.294L252.198,417.955z M252.783,416.36c-0.433-0.401-0.865-0.823-1.276-1.257l0.244-0.513
	c0.442,0.493,0.911,0.975,1.381,1.431L252.783,416.36z M253.518,414.825c-0.396-0.442-0.783-0.902-1.155-1.371l0.291-0.488
	c0.396,0.533,0.819,1.053,1.244,1.553L253.518,414.825z M254.392,413.36c-0.359-0.478-0.699-0.967-1.03-1.471l0.335-0.46
	c0.351,0.569,0.718,1.119,1.104,1.657L254.392,413.36z M255.393,411.97c-0.309-0.505-0.611-1.026-0.899-1.555l0.371-0.43
	c0.304,0.594,0.628,1.178,0.961,1.746L255.393,411.97z M256.516,410.663c-0.27-0.531-0.527-1.072-0.771-1.62l0.403-0.402
	c0.26,0.62,0.529,1.224,0.821,1.819L256.516,410.663z M257.741,409.442c-0.228-0.549-0.444-1.11-0.645-1.674l0.432-0.371
	c0.211,0.635,0.438,1.259,0.678,1.875L257.741,409.442z M259.06,408.312c-0.188-0.567-0.358-1.14-0.52-1.72l0.457-0.336
	c0.164,0.648,0.344,1.287,0.543,1.918L259.06,408.312z M260.457,407.277c-0.146-0.578-0.279-1.162-0.399-1.75l0.482-0.306
	c0.118,0.657,0.254,1.309,0.407,1.951L260.457,407.277z M260.578,405.172c-0.481-0.359-0.975-0.71-1.476-1.05l0.345-0.441
	c0.554,0.387,1.091,0.785,1.618,1.199L260.578,405.172z M261.923,406.348c-0.104-0.588-0.196-1.18-0.271-1.776l0.506-0.264
	c0.063,0.663,0.15,1.322,0.257,1.974L261.923,406.348z"/>
<g>
	<path style="fill:#1D1D1B;" d="M474.104,404.317c0.63-5.187,0.014-9.343-1.1-10.48c-1.111-1.133-5.227-1.83-10.4-1.313
		L474.104,404.317z"/>
	<path style="fill:#1D1D1B;" d="M432.756,420.463c-0.891,5.557-0.255,10.165,1.204,11.653c1.448,1.478,5.988,2.206,11.511,1.452
		L432.756,420.463z"/>
	<path style="fill:#1D1D1B;" d="M455.495,393.931c-4.616,1.377-9.377,3.761-13.264,7.572c-3.638,3.568-6.109,7.858-7.672,12.096
		l17.79,18.334c4.312-1.476,8.705-3.875,12.382-7.481c3.867-3.791,6.338-8.474,7.811-13.039L455.495,393.931z M457.552,402.224
		c0.317,0.424,0.183,1.049-0.292,1.404c-0.474,0.354-1.118,0.316-1.444-0.094c-0.178-0.226-0.358-0.453-0.537-0.679
		c-0.38,0.298-0.757,0.6-1.131,0.905c0.182,0.222,0.363,0.443,0.546,0.665c0.329,0.402,0.222,1.027-0.235,1.403
		c-0.458,0.377-1.096,0.373-1.433-0.014c-0.187-0.214-0.373-0.427-0.559-0.642c-0.365,0.316-0.727,0.635-1.086,0.957
		c0.188,0.21,0.378,0.418,0.567,0.628c0.341,0.38,0.258,1.003-0.18,1.401c-0.439,0.397-1.072,0.43-1.421,0.066
		c-0.193-0.202-0.385-0.403-0.578-0.605c-0.35,0.333-0.696,0.668-1.039,1.008c0.195,0.196,0.389,0.392,0.584,0.589
		c0.353,0.356,0.294,0.979-0.125,1.397c-0.42,0.418-1.045,0.485-1.404,0.145c-0.199-0.189-0.397-0.377-0.595-0.565
		c-0.333,0.348-0.663,0.7-0.99,1.055c0.199,0.184,0.4,0.367,0.601,0.55c0.362,0.334,0.328,0.953-0.071,1.391
		c-0.4,0.437-1.017,0.54-1.384,0.223c-0.205-0.175-0.407-0.351-0.612-0.526c-0.316,0.365-0.629,0.732-0.94,1.102
		c0.205,0.17,0.411,0.341,0.616,0.511c0.372,0.31,0.361,0.925-0.018,1.382c-0.38,0.458-0.985,0.594-1.361,0.303
		c-0.209-0.163-0.416-0.326-0.624-0.487c-0.161,0.205-0.323,0.413-0.483,0.62c-0.354,0.456-1.022,0.548-1.498,0.196
		c-0.477-0.352-0.577-1.03-0.218-1.509c0.163-0.215,0.327-0.43,0.491-0.642c-0.206-0.163-0.414-0.324-0.621-0.487
		c-0.377-0.292-0.37-0.943,0.023-1.449c0.395-0.506,1.02-0.658,1.392-0.349c0.205,0.171,0.409,0.34,0.615,0.51
		c0.315-0.385,0.633-0.767,0.955-1.146c-0.204-0.175-0.407-0.35-0.609-0.526c-0.369-0.316-0.338-0.971,0.08-1.457
		c0.418-0.486,1.055-0.602,1.417-0.269c0.201,0.183,0.401,0.366,0.601,0.549c0.332-0.37,0.669-0.736,1.008-1.098
		c-0.198-0.189-0.396-0.377-0.594-0.565c-0.359-0.34-0.302-0.998,0.138-1.463c0.439-0.465,1.087-0.546,1.44-0.189
		c0.195,0.196,0.389,0.392,0.583,0.589c0.35-0.354,0.702-0.702,1.058-1.049c-0.191-0.201-0.384-0.403-0.577-0.604
		c-0.349-0.363-0.265-1.024,0.197-1.468c0.462-0.444,1.117-0.489,1.459-0.109c0.189,0.209,0.377,0.418,0.566,0.627
		c0.365-0.337,0.735-0.669,1.106-0.998c-0.186-0.214-0.371-0.427-0.558-0.641c-0.338-0.386-0.229-1.047,0.254-1.469
		c0.483-0.422,1.146-0.431,1.474-0.028c0.182,0.221,0.363,0.443,0.546,0.664c0.381-0.318,0.766-0.633,1.154-0.945
		c-0.178-0.227-0.358-0.453-0.536-0.679c-0.326-0.409-0.188-1.071,0.314-1.468c0.504-0.401,1.172-0.372,1.487,0.053
		c0.174,0.234,0.349,0.467,0.523,0.7c0.216-0.162,0.431-0.324,0.647-0.485c0.481-0.357,1.189-0.198,1.575,0.348
		c0.387,0.546,0.317,1.257-0.152,1.596c-0.213,0.154-0.423,0.309-0.635,0.464C457.204,401.756,457.379,401.99,457.552,402.224z"/>
</g>
<g>
	<path style="fill:#1D1D1B;" d="M537.811,419.138c3.107,3.768,7.691,5.929,12.581,5.929c3.764,0,7.44-1.322,10.351-3.722
		c3.357-2.767,5.436-6.676,5.853-11.007c0.418-4.332-0.877-8.566-3.647-11.923l-4.837-5.871c1.215,0.301,2.39,0.702,3.513,1.2
		c-2.613-1.169-5.501-1.834-8.55-1.834c-11.589,0-20.984,9.394-20.984,20.983c0-0.221,0.026-0.434,0.034-0.654L537.811,419.138z"/>
	<path style="fill:#1D1D1B;" d="M532.262,415.443c-0.033-0.254-0.057-0.51-0.081-0.766
		C532.203,414.934,532.23,415.189,532.262,415.443z"/>
	<path style="fill:#1D1D1B;" d="M561.821,393.837c0.493,0.225,0.98,0.464,1.454,0.725
		C562.803,394.299,562.314,394.064,561.821,393.837z"/>
	<path style="fill:#1D1D1B;" d="M563.768,394.862c0.376,0.222,0.756,0.443,1.115,0.689l0.625,0.757
		c3.332,4.041,4.889,9.136,4.387,14.348c-0.502,5.212-3.003,9.916-7.043,13.246c-3.505,2.888-7.929,4.478-12.459,4.478
		c-5.883,0-11.4-2.6-15.137-7.134l-2.438-2.955c2.385,8.969,10.537,15.588,20.257,15.588c11.589,0,20.984-9.395,20.984-20.985
		C574.059,405.215,569.921,398.52,563.768,394.862z"/>
	<path style="fill:#1D1D1B;" d="M532.812,418.272c-0.18-0.682-0.321-1.379-0.438-2.084
		C532.488,416.896,532.632,417.59,532.812,418.272z"/>
</g>
<g>
	<path style="fill:#1D1D1B;" d="M136.871,404.438c0.001,0.036,0.002,0.072,0.003,0.108
		C136.873,404.51,136.872,404.474,136.871,404.438z"/>
	<path style="fill:#1D1D1B;" d="M137.507,400.674c0.01-0.029,0.019-0.058,0.029-0.087
		C137.527,400.616,137.517,400.645,137.507,400.674z"/>
	<path style="fill:#1D1D1B;" d="M152.599,400.599c0.007,0.019,0.013,0.039,0.019,0.058
		C152.612,400.637,152.606,400.618,152.599,400.599z"/>
	<path style="fill:#1D1D1B;" d="M153.261,404.444c-0.001,0.032-0.001,0.064-0.003,0.096
		C153.26,404.508,153.26,404.476,153.261,404.444z"/>
	<path style="fill:#1D1D1B;" d="M141.93,401.245c-0.001,0.042-0.002,0.084-0.004,0.126
		C141.928,401.328,141.928,401.286,141.93,401.245z"/>
	<path style="fill:#1D1D1B;" d="M148.421,401.245c0.001,0.042,0.002,0.084,0.003,0.126
		C148.422,401.328,148.422,401.286,148.421,401.245z"/>
	<path style="fill:#1D1D1B;" d="M149.126,397.081c0.01-0.03,0.02-0.06,0.031-0.091C149.146,397.021,149.136,397.051,149.126,397.081
		z"/>
	<g>
		<path style="fill:#1D1D1B;" d="M160.922,404.438c0.001,0.036,0.002,0.072,0.003,0.108
			C160.924,404.51,160.923,404.474,160.922,404.438z"/>
		<path style="fill:#1D1D1B;" d="M153.538,398.587c0.009,0.018,0.016,0.034,0.024,0.051c0.117,0.368,0.279,0.714,0.475,1.039
			c-0.01-0.016-0.017-0.033-0.025-0.048h7.953c-0.01,0.016-0.016,0.033-0.025,0.048c0.196-0.324,0.358-0.671,0.475-1.039
			c0.008-0.017,0.016-0.034,0.024-0.051c0.007-0.015,0.006-0.03,0.002-0.046c0.129-0.436,0.201-0.897,0.201-1.375
			c0-2.602-2.044-4.719-4.611-4.856v-0.007c-0.015,0.001-0.029,0.003-0.043,0.003c-0.015-0.001-0.029-0.003-0.043-0.003v0.007
			c-2.569,0.137-4.611,2.253-4.611,4.856c0,0.477,0.072,0.939,0.2,1.375C153.531,398.557,153.53,398.572,153.538,398.587z"/>
		<path style="fill:#1D1D1B;" d="M154.69,401.548c-0.001-0.003-0.002-0.007-0.002-0.009c0.184,0.673,0.304,1.339,0.35,2.005h5.9
			c0.047-0.663,0.166-1.326,0.348-1.996H154.69z"/>
		<path style="fill:#1D1D1B;" d="M161.558,400.674c0.01-0.029,0.019-0.058,0.029-0.087
			C161.577,400.616,161.568,400.645,161.558,400.674z"/>
		<path style="fill:#1D1D1B;" d="M164.399,412.411c-0.068-0.164-0.169-0.335-0.307-0.515c-1.835-2.395-2.799-4.46-3.086-6.433
			h-6.035c-0.179,1.233-0.623,2.501-1.378,3.864c0.045,0.059,0.083,0.116,0.128,0.175c0.152,0.198,0.264,0.388,0.341,0.569
			c1.195,2.028,1.906,4.84,1.906,8.538c0,3.532-1.634,8.565-3.294,12.233c0.648,1.47,1.309,2.727,1.866,3.556h3.404h0.086h3.404
			c1.801-2.681,4.687-9.808,4.687-14.27C166.122,416.785,165.48,414.243,164.399,412.411z"/>
	</g>
	<path style="fill:#1D1D1B;" d="M141.194,396.991c0.011,0.03,0.02,0.06,0.031,0.091
		C141.214,397.051,141.204,397.021,141.194,396.991z"/>
	<g>
		<path style="fill:#1D1D1B;" d="M128.845,401.548c-0.001-0.003-0.002-0.007-0.003-0.009c0.184,0.673,0.304,1.339,0.351,2.005h5.901
			c0.047-0.663,0.166-1.326,0.348-1.996H128.845z"/>
		<path style="fill:#1D1D1B;" d="M129.21,404.444c-0.001,0.032-0.001,0.064-0.003,0.096
			C129.209,404.508,129.209,404.476,129.21,404.444z"/>
		<path style="fill:#1D1D1B;" d="M127.692,398.587c0.009,0.018,0.016,0.034,0.025,0.051c0.116,0.368,0.279,0.714,0.475,1.039
			c-0.01-0.016-0.017-0.033-0.026-0.048h7.953c-0.01,0.016-0.016,0.033-0.025,0.048c0.196-0.324,0.358-0.671,0.475-1.039
			c0.008-0.017,0.016-0.034,0.024-0.051c0.007-0.015,0.006-0.03,0.003-0.046c0.128-0.436,0.201-0.897,0.201-1.375
			c0-2.602-2.044-4.719-4.611-4.856v-0.007c-0.015,0.001-0.029,0.003-0.044,0.003c-0.015-0.001-0.029-0.003-0.043-0.003v0.007
			c-2.569,0.137-4.611,2.253-4.611,4.856c0,0.477,0.072,0.939,0.2,1.375C127.687,398.557,127.685,398.572,127.692,398.587z"/>
		<path style="fill:#1D1D1B;" d="M128.548,400.599c0.007,0.019,0.013,0.039,0.019,0.058
			C128.561,400.637,128.555,400.618,128.548,400.599z"/>
		<path style="fill:#1D1D1B;" d="M134.382,418.609c0-3.699,0.711-6.511,1.906-8.538c0.076-0.181,0.188-0.371,0.34-0.569
			c0.003-0.004,0.005-0.007,0.008-0.011c-0.811-1.424-1.288-2.745-1.475-4.028h-6.035c-0.287,1.973-1.25,4.038-3.086,6.433
			c-0.138,0.18-0.239,0.351-0.308,0.515c-1.08,1.833-1.722,4.374-1.722,7.717c0,4.462,2.884,11.589,4.686,14.27h3.404h0.087h3.404
			c0.588-0.875,1.291-2.228,1.972-3.803C135.942,426.95,134.382,422.061,134.382,418.609z"/>
	</g>
	<g>
		<path style="fill:#1D1D1B;" d="M148.824,398.05h-7.299c0-0.002-0.001-0.003-0.001-0.004c0.203,0.744,0.335,1.48,0.387,2.216
			c0-0.001,0-0.002,0-0.003h6.529c0,0.001,0,0.002,0,0.003c0.052-0.736,0.183-1.472,0.387-2.216
			C148.825,398.048,148.825,398.049,148.824,398.05z"/>
		<path style="fill:#1D1D1B;" d="M140.25,394.775c0.01,0.019,0.018,0.038,0.027,0.057c0.129,0.407,0.309,0.79,0.525,1.149
			c-0.01-0.017-0.018-0.036-0.028-0.053h8.799c-0.01,0.018-0.018,0.037-0.028,0.053c0.217-0.359,0.397-0.742,0.526-1.149
			c0.009-0.019,0.018-0.037,0.027-0.057c0.008-0.017,0.007-0.034,0.003-0.051c0.143-0.483,0.222-0.993,0.222-1.522
			c0-2.879-2.261-5.221-5.102-5.372v-0.008c-0.017,0.001-0.032,0.003-0.048,0.004c-0.017,0-0.033-0.003-0.048-0.004v0.008
			c-2.842,0.151-5.101,2.493-5.101,5.372c0,0.529,0.079,1.038,0.221,1.522C140.244,394.741,140.242,394.758,140.25,394.775z"/>
		<path style="fill:#1D1D1B;" d="M152.269,410.07c-0.076-0.181-0.188-0.371-0.341-0.569c-2.031-2.651-3.096-4.935-3.414-7.119
			h-6.678c-0.318,2.184-1.383,4.468-3.414,7.119c-0.152,0.198-0.264,0.388-0.34,0.569c-1.195,2.028-1.906,4.84-1.906,8.538
			c0,4.938,3.192,12.823,5.185,15.789h3.766h0.096h3.766c1.993-2.966,5.186-10.851,5.186-15.789
			C154.175,414.91,153.463,412.098,152.269,410.07z"/>
	</g>
</g>
<g>
	<rect x="540.094" y="237.129" style="fill:#1D1D1B;" width="3.139" height="26.675"/>
	<rect x="563.201" y="237.129" style="fill:#1D1D1B;" width="3.139" height="26.675"/>
	<path style="fill:#1D1D1B;" d="M544.083,260.94v3.04c3.255,1.03,5.622,4.076,5.622,7.669c0,4.434-3.608,8.042-8.042,8.042
		s-8.042-3.608-8.042-8.042c0-3.579,2.351-6.616,5.589-7.656v-3.044c-4.884,1.116-8.53,5.478-8.53,10.7
		c0,6.065,4.917,10.983,10.984,10.983c6.065,0,10.984-4.918,10.984-10.983C552.647,266.414,548.983,262.044,544.083,260.94z"/>
	<path style="fill:#1D1D1B;" d="M567.206,260.935v3.038c3.267,1.022,5.642,4.076,5.642,7.676c0,4.434-3.608,8.042-8.041,8.042
		c-4.435,0-8.042-3.608-8.042-8.042c0-3.572,2.342-6.603,5.568-7.649v-3.046c-4.873,1.124-8.51,5.48-8.51,10.695
		c0,6.065,4.917,10.983,10.984,10.983c6.065,0,10.983-4.918,10.983-10.983C575.79,266.408,572.117,262.031,567.206,260.935z"/>
</g>
<g>
	<path style="fill:#1D1D1B;" d="M432.412,336.644c0,0.579,0.029,1.149,0.074,1.716C432.441,337.794,432.412,337.223,432.412,336.644
		z"/>
	<path style="fill:#1D1D1B;" d="M456.632,327.065c3.731,0.186,6.952,0.338,8.12-0.501c-4.288-5.198-10.778-8.515-18.027-8.515
		c-1.466,0-2.9,0.142-4.293,0.401c-6.021,3.818-10.021,10.537-10.021,18.194c0-0.41,0.014-0.816,0.037-1.22
		C436.626,326.073,448.514,326.66,456.632,327.065z"/>
	<path style="fill:#1D1D1B;" d="M432.487,338.366c0.233,2.942,1.056,5.717,2.352,8.208c9.116-1.972,23.322-6.374,33.819-13.222
		c-0.803-2.176-1.923-4.201-3.302-6.021c-1.449,1.065-4.689,0.914-8.774,0.711C447.569,327.594,435.266,326.989,432.487,338.366z"/>
	<path style="fill:#1D1D1B;" d="M453.946,315.111c-4.235,0-8.18,1.227-11.511,3.338c0.755-0.477,1.54-0.912,2.353-1.295
		c0.64-0.051,1.285-0.084,1.937-0.084c7.528,0,14.267,3.434,18.736,8.817c1.699-1.922,1.913-4.429,1.791-6.165
		c0.348,0.273,0.689,0.555,1.017,0.851c0,1.865-0.441,4.215-2.191,6.094c1.418,1.856,2.574,3.919,3.416,6.138
		c1.67-1.133,3.245-2.323,4.669-3.585c0.123,0.332,0.237,0.668,0.343,1.008c-1.433,1.252-3.007,2.431-4.667,3.552
		c0.721,2.176,1.142,4.486,1.215,6.884c1.481,0.008,2.748,0.432,3.82,1.045c-0.081,0.335-0.169,0.666-0.265,0.996
		c-0.99-0.614-2.167-1.049-3.542-1.061c-0.037,3.985-1.036,7.743-2.776,11.055c-0.315,0.283-0.641,0.553-0.972,0.817
		c4.97-3.945,8.161-10.034,8.161-16.872C475.479,324.751,465.839,315.111,453.946,315.111z"/>
	<path style="fill:#1D1D1B;" d="M435.33,347.463c-0.17-0.292-0.332-0.586-0.49-0.886C434.997,346.877,435.16,347.172,435.33,347.463
		z"/>
	<path style="fill:#1D1D1B;" d="M467.181,353.623c-0.326,0.255-0.658,0.502-1,0.738
		C466.523,354.125,466.855,353.878,467.181,353.623z"/>
	<path style="fill:#1D1D1B;" d="M470.076,341.909c-1.431,0.665-3.411,2.566-5.648,4.726c-4.305,4.158-10.085,9.732-16.546,10.671
		c-0.805-0.235-1.591-0.513-2.353-0.837c6.961,0.33,13.278-5.767,18.219-10.54c2.552-2.465,4.651-4.477,6.334-5.072
		c-0.054-2.269-0.428-4.459-1.087-6.525c-10.382,6.754-24.159,11.085-33.658,13.141c3.732,6.4,10.666,10.703,18.609,10.703
		c4.538,0,8.745-1.406,12.216-3.803C468.558,350.791,469.979,346.51,470.076,341.909z"/>
</g>
<g>
	<path style="fill:#1D1D1B;" d="M458.69,240.457c-0.479-1.846-2.464-3.231-4.843-3.231c-2.379,0-4.364,1.384-4.843,3.231H458.69z"/>
	<path style="fill:#1D1D1B;" d="M456.083,235.658c-0.313,0-0.614,0.022-0.917,0.045c-0.18-0.498-0.652-0.854-1.211-0.854h-0.215
		c-0.562,0-1.036,0.361-1.214,0.863h-0.43c-0.297,0-0.538,0.241-0.538,0.538c0,0.297,0.241,0.538,0.538,0.538h0.35v1.473
		c0.446-0.108,0.912-0.18,1.401-0.18c0.489,0,0.955,0.072,1.4,0.18v-1.587c0.276-0.022,0.55-0.048,0.835-0.048
		c3.591,0,6.624,1.752,6.624,3.825c0,1.264-1.132,2.406-2.826,3.107v-0.952c0-0.715-0.579-1.293-1.294-1.293h-9.479
		c-0.715,0-1.293,0.578-1.293,1.293v3.286c0.176-0.029,0.355-0.054,0.538-0.054h10.988c0.185,0,0.362,0.025,0.539,0.054v-1.273
		c2.284-0.818,3.797-2.359,3.797-4.167C463.677,237.763,460.342,235.658,456.083,235.658z"/>
	<path style="fill:#1D1D1B;" d="M459.341,246.693h-10.988c-1.785,0-3.231,1.447-3.231,3.233v30.378c0,1.785,1.447,3.231,3.231,3.231
		h10.988c1.785,0,3.232-1.446,3.232-3.231v-30.378C462.574,248.14,461.126,246.693,459.341,246.693z M449.813,281.328
		c-1.432-0.026-2.585-1.189-2.585-2.627V251.36c0-1.437,1.153-2.602,2.585-2.628V281.328z"/>
</g>
<g>
	<g>
		<path style="fill:#1D1D1B;" d="M551.539,335.662c-1.067-0.558-1.592-1.457-1.592-2.422c0-1.862,1.678-3.099,3.878-3.099
			c2.575,0,3.642,1.491,3.642,2.828c0,0.948-0.509,1.88-1.607,2.423v0.05c1.083,0.407,2.032,1.322,2.032,2.727
			c0,1.998-1.678,3.353-4.235,3.353c-2.795,0-4.082-1.574-4.082-3.065c0-1.321,0.763-2.236,1.964-2.761V335.662z M555.264,338.372
			c0-0.967-0.727-1.544-1.726-1.813c-0.847,0.237-1.339,0.846-1.339,1.643c-0.017,0.797,0.594,1.541,1.559,1.541
			C554.656,339.743,555.264,339.149,555.264,338.372z M552.385,333.155c0,0.745,0.661,1.22,1.543,1.492
			c0.592-0.171,1.117-0.712,1.117-1.389c0-0.696-0.389-1.374-1.338-1.374C552.826,331.884,552.385,332.479,552.385,333.155z"/>
	</g>
	<path style="fill:#1D1D1B;" d="M564.402,317.54c-0.018-0.01-0.036-0.021-0.054-0.03c-0.859-0.499-1.757-0.94-2.687-1.316
		c-0.062-0.025-0.124-0.049-0.186-0.073c-0.449-0.177-0.904-0.342-1.367-0.488c-0.003-0.002-0.007-0.003-0.01-0.004
		c-0.458-0.145-0.924-0.269-1.395-0.383c-0.096-0.023-0.193-0.045-0.291-0.067c-0.455-0.103-0.915-0.195-1.38-0.268
		c-0.015-0.003-0.03-0.006-0.045-0.009c-0.473-0.073-0.952-0.126-1.435-0.167c-0.116-0.009-0.232-0.018-0.349-0.026
		c-0.486-0.033-0.975-0.056-1.469-0.056c-0.543,0-1.079,0.027-1.612,0.067c-0.101,0.007-0.202,0.013-0.302,0.023
		c-0.514,0.046-1.022,0.111-1.525,0.192c-0.089,0.014-0.177,0.031-0.266,0.047c-0.513,0.09-1.021,0.194-1.52,0.322
		c-0.007,0.002-0.016,0.003-0.023,0.005c-0.515,0.132-1.021,0.287-1.521,0.456c-0.071,0.024-0.142,0.047-0.214,0.072
		c-0.495,0.173-0.983,0.363-1.461,0.571c-0.035,0.015-0.068,0.031-0.102,0.047c-1.01,0.446-1.978,0.969-2.898,1.562
		c-0.008,0.005-0.016,0.01-0.024,0.014c-5.84,3.771-9.71,10.332-9.71,17.8c0,11.696,9.483,21.176,21.178,21.176
		c11.695,0,21.176-9.48,21.176-21.176C574.91,328.028,570.685,321.214,564.402,317.54z M553.734,344.817
		c-4.963,0-8.986-4.022-8.986-8.984c0-4.962,4.023-8.987,8.986-8.987c4.961,0,8.982,4.026,8.982,8.987
		C562.716,340.796,558.695,344.817,553.734,344.817z M562.906,328.202c-2.408-2.1-3.338-4.972-2.079-6.417
		c1.26-1.445,4.232-0.913,6.641,1.185c2.407,2.101,3.338,4.973,2.08,6.418C568.287,330.832,565.314,330.302,562.906,328.202z"/>
</g>
<g>
	<path style="fill:#1D1D1B;" d="M128.409,266.535c0,0.66-0.535,1.195-1.195,1.195h-1.792c-0.66,0-1.195-0.535-1.195-1.195v-13.736
		c0-0.661,0.535-1.195,1.195-1.195h1.792c0.66,0,1.195,0.534,1.195,1.195V266.535z"/>
	<path style="fill:#1D1D1B;" d="M133.14,268.33c0,0.659-0.534,1.194-1.194,1.194h-1.792c-0.66,0-1.196-0.535-1.196-1.194v-17.326
		c0-0.66,0.536-1.194,1.196-1.194h1.792c0.66,0,1.194,0.534,1.194,1.194V268.33z"/>
	<path style="fill:#1D1D1B;" d="M137.87,270.123c0,0.66-0.536,1.195-1.195,1.195h-1.793c-0.659,0-1.195-0.535-1.195-1.195V249.21
		c0-0.66,0.536-1.195,1.195-1.195h1.793c0.659,0,1.195,0.535,1.195,1.195V270.123z"/>
	<g>
		<path style="fill:#1D1D1B;" d="M166.307,252.799c0-0.661,0.535-1.195,1.195-1.195h1.793c0.659,0,1.194,0.534,1.194,1.195v13.736
			c0,0.66-0.535,1.195-1.194,1.195h-1.793c-0.66,0-1.195-0.535-1.195-1.195V252.799z"/>
		<path style="fill:#1D1D1B;" d="M161.576,251.004c0-0.66,0.535-1.194,1.195-1.194h1.793c0.659,0,1.195,0.534,1.195,1.194v17.326
			c0,0.659-0.535,1.194-1.195,1.194h-1.793c-0.659,0-1.195-0.535-1.195-1.194V251.004z"/>
		<path style="fill:#1D1D1B;" d="M156.845,249.21c0-0.66,0.535-1.195,1.195-1.195h1.792c0.66,0,1.196,0.535,1.196,1.195v20.913
			c0,0.66-0.535,1.195-1.196,1.195h-1.792c-0.66,0-1.195-0.535-1.195-1.195V249.21z"/>
	</g>
	<rect x="121.229" y="256.978" style="fill:#1D1D1B;" width="2.25" height="5.376"/>
	<rect x="138.479" y="256.978" style="fill:#1D1D1B;" width="17.651" height="5.376"/>
	<rect x="171.232" y="256.978" style="fill:#1D1D1B;" width="2.253" height="5.376"/>
</g>
<g>
	<path style="fill:#1D1D1B;" d="M662.315,338.278l-19.053,6.572c2.463,1.268,5.195,1.844,7.92,1.579l3.809,12.597
		c0.2,0.58,0.833,0.889,1.414,0.689l4.728-1.631c0.581-0.2,0.889-0.832,0.688-1.413l-4.767-12.267
		C659.362,342.931,661.158,340.794,662.315,338.278z"/>
	<path style="fill:#1D1D1B;" d="M643.438,314.453c-7.689,2.652-11.709,11.214-8.757,19.773c1.536,4.454,4.612,7.884,8.29,9.778
		l19.053-6.573c1.729-3.759,2.035-8.356,0.499-12.81C659.57,316.063,651.126,311.8,643.438,314.453z M655.154,334.218
		c-2.177,0.751-4.549-0.405-5.299-2.581c-0.751-2.177,0.404-4.549,2.58-5.299c2.175-0.752,4.548,0.404,5.299,2.581
		C658.485,331.095,657.329,333.468,655.154,334.218z"/>
</g>
<g>
	<g>
		<path style="fill:#1D1D1B;" d="M636.284,100.928c4.732,0,8.581,3.849,8.581,8.579c0,4.732-3.848,8.58-8.581,8.58
			c-4.73,0-8.58-3.849-8.58-8.58C627.703,104.777,631.553,100.928,636.284,100.928 M636.284,98.974
			c-5.819,0-10.534,4.717-10.534,10.534c0,5.818,4.716,10.535,10.534,10.535c5.817,0,10.535-4.717,10.535-10.535
			C646.818,103.691,642.101,98.974,636.284,98.974L636.284,98.974z"/>
	</g>
	<path style="fill:#1D1D1B;" d="M670.074,98.974c-1.245,0-2.435,0.229-3.545,0.625l-1.205-2.712l-1.339,0.595l1.2,2.701
		c-3.355,1.762-5.644,5.273-5.644,9.325c0,5.818,4.717,10.535,10.533,10.535c5.819,0,10.535-4.717,10.535-10.535
		C680.61,103.691,675.894,98.974,670.074,98.974z M670.074,118.088c-4.731,0-8.579-3.849-8.579-8.58
		c0-3.248,1.814-6.082,4.484-7.538l2.76,6.217c-0.345,0.354-0.56,0.84-0.56,1.376c0,1.09,0.885,1.976,1.974,1.976
		c1.091,0,1.976-0.886,1.976-1.976c0-1.091-0.884-1.974-1.976-1.974c-0.024,0-0.047,0.005-0.072,0.006l-2.757-6.206
		c0.864-0.294,1.789-0.46,2.751-0.46c4.731,0,8.581,3.849,8.581,8.579C678.656,114.24,674.805,118.088,670.074,118.088z"/>
	<path style="fill:#1D1D1B;" d="M666.162,98.682l-3.454-7.73l-1.338,0.6l1.039,2.323l-17.244,1.826l-2.485-4.724l-1.297,0.682
		l2.575,4.897l-8.639,12.786c-0.153,0.224-0.168,0.514-0.039,0.754c0.127,0.238,0.375,0.389,0.647,0.389h15.802
		c0.231,0,0.451-0.111,0.588-0.297l10.84-14.644l1.669,3.734L666.162,98.682z M644.733,98.029l5.782,10.991h-13.21L644.733,98.029z
		 M651.833,108.38l-5.934-11.282l15.499-1.643L651.833,108.38z"/>
	<circle style="fill:#1D1D1B;" cx="636.104" cy="109.813" r="1.975"/>
	<circle style="fill:#1D1D1B;" cx="651.667" cy="109.333" r="3.292"/>
	<path style="fill:#1D1D1B;" d="M648.016,90.9c0,0.694-0.561,1.257-1.257,1.257h-7.064c-0.692,0-1.255-0.564-1.255-1.257l0,0
		c0-0.695,0.563-1.257,1.255-1.257h7.064C647.454,89.643,648.016,90.205,648.016,90.9L648.016,90.9z"/>
	<path style="fill:#1D1D1B;" d="M666.408,86.529c-1.133,0-2.053,0.698-2.053,1.556c0,0.088,0.017,0.172,0.034,0.255
		c-0.223-0.063-0.471-0.041-0.688,0.083l-2.81,1.597c-0.431,0.245-0.58,0.793-0.336,1.223c0.244,0.431,0.793,0.581,1.222,0.337
		l2.811-1.598c0.282-0.16,0.428-0.451,0.439-0.753c0.364,0.253,0.847,0.412,1.381,0.412c1.131,0,2.052-0.697,2.052-1.557
		C668.459,87.228,667.539,86.529,666.408,86.529z"/>
</g>
<g>
	<path style="fill:#1D1D1B;" d="M676.388,415.739c-1.606-4.782-6.813-8.038-13.018-8.738v8.952c1.746,0.395,2.978,1.345,2.978,2.457
		c0,1.466-2.138,2.654-4.777,2.654c-2.638,0-4.776-1.188-4.776-2.654c0-1.116,1.239-2.067,2.993-2.461v-9.066
		c-0.742,0.033-1.491,0.101-2.242,0.21c-3.126,0.007-6.527,0.385-9.999,1.179c-11.917,2.726-20.114,9.296-18.308,14.673
		c1.446,4.306,8.87,6.538,17.89,5.857c4.099,3.042,10.385,4.295,16.639,2.863C672.984,429.558,678.634,422.427,676.388,415.739z"/>
	<rect x="660.708" y="391.742" style="fill:#1D1D1B;" width="1.942" height="26.869"/>
	<polygon style="fill:#1D1D1B;" points="651.288,395.037 655.549,393.536 659.812,392.034 659.812,395.037 659.812,398.041 
		655.549,396.539 	"/>
</g>
<g>
	<path style="fill:#1D1D1B;" d="M228.055,87.779c1.067,8.088,2.135,16.176,3.202,24.264c10.723-11.29,25.292,6.536,36.015-4.754
		c-1.067-8.089-2.134-16.177-3.203-24.265C253.345,94.315,238.778,76.488,228.055,87.779z M264.508,91.843
		c-2.511,2.346-5.219,3.202-8.03,3.283c-0.331-2.513-0.663-5.026-0.995-7.539c2.811-0.081,5.518-0.936,8.03-3.283
		C263.845,86.817,264.177,89.33,264.508,91.843z M238.159,92.197c0.332,2.521,0.665,5.043,0.998,7.563
		c-2.93,0.022-5.753,0.85-8.363,3.289c-0.332-2.521-0.665-5.041-0.999-7.563C232.406,93.046,235.23,92.219,238.159,92.197z
		 M239.2,100.082c2.955-0.022,6.019,0.777,9.083,1.569c0.325,2.464,0.65,4.928,0.975,7.391c-3.063-0.791-6.126-1.59-9.083-1.568
		C239.85,105.01,239.525,102.546,239.2,100.082z M257.318,102.855c-2.892,0.049-5.89-0.703-8.89-1.477
		c-0.333-2.52-0.667-5.043-0.999-7.563c3.001,0.775,5.998,1.526,8.89,1.477C256.652,97.812,256.986,100.334,257.318,102.855z
		 M247.221,93.605c-3.063-0.792-6.127-1.591-9.083-1.569c-0.332-2.512-0.663-5.025-0.995-7.539c2.955-0.022,6.019,0.777,9.083,1.569
		C246.558,88.578,246.889,91.092,247.221,93.605z M258.517,110.564c-0.326-2.464-0.65-4.928-0.976-7.392
		c2.81-0.081,5.518-0.936,8.03-3.283c0.325,2.464,0.65,4.927,0.976,7.391C264.035,109.628,261.327,110.483,258.517,110.564z"/>
	<path style="fill:#1D1D1B;" d="M232.125,127.899c0.053,0.393-0.224,0.755-0.616,0.808l-1.78,0.24
		c-0.393,0.053-0.755-0.223-0.808-0.616l-5.37-39.867c-0.053-0.393,0.223-0.755,0.616-0.808l1.78-0.239
		c0.393-0.052,0.755,0.223,0.808,0.616L232.125,127.899z"/>
</g>
<g>
	<path style="fill:#1D1D1B;" d="M246.833,171.602c8.152,0,14.785,6.632,14.785,14.784c0,8.152-6.633,14.784-14.785,14.784
		c-8.152,0-14.784-6.632-14.784-14.784C232.049,178.234,238.681,171.602,246.833,171.602 M246.833,167.793
		c-10.268,0-18.593,8.324-18.593,18.593c0,10.269,8.325,18.593,18.593,18.593c10.269,0,18.594-8.325,18.594-18.593
		C265.427,176.117,257.102,167.793,246.833,167.793L246.833,167.793z"/>
	<rect x="241.798" y="159.274" style="fill:#1D1D1B;" width="10.071" height="6.973"/>
	
		<rect x="232.118" y="168.819" transform="matrix(0.7072 -0.7071 0.7071 0.7072 -52.5696 216.4033)" style="fill:#1D1D1B;" width="5.693" height="5.693"/>
	<path style="fill:#1D1D1B;" d="M248.357,189.05c-0.16,0.18-0.67-0.013-1.136-0.433l-2.111-1.896
		c-0.467-0.419-0.713-0.904-0.552-1.085l9.19-8.528c0.162-0.182,0.671,0.013,1.138,0.432l0.419,0.377
		c0.467,0.419,0.713,0.906,0.552,1.086L248.357,189.05z"/>
</g>
<g>
	<path style="fill:#1D1D1B;" d="M254.617,249.09l3.836,3.054l1.351-1.697l-10.608-8.445l-1.351,1.698l3.837,3.053l-1.244,1.562
		c-0.027,0.031-0.057,0.055-0.082,0.087c-0.7,0.88-0.607,2.119,0.208,2.768c0.815,0.65,2.044,0.462,2.745-0.418
		c0.027-0.033,0.043-0.069,0.068-0.102L254.617,249.09z M251.205,250.363c-0.428-0.34-0.476-0.99-0.108-1.45
		c0.366-0.461,1.01-0.56,1.438-0.22c0.427,0.341,0.476,0.992,0.109,1.452C252.276,250.605,251.632,250.704,251.205,250.363z"/>
	<path style="fill:#1D1D1B;" d="M245.736,244.971c-0.56,0.703-1.541,0.852-2.193,0.334l-2.062-1.642
		c-0.652-0.518-0.725-1.508-0.166-2.211l4.051-5.089c0.559-0.703,1.54-0.852,2.191-0.334l2.062,1.642
		c0.651,0.518,0.725,1.508,0.167,2.21L245.736,244.971z"/>
	<path style="fill:#1D1D1B;" d="M262.107,258.004c-0.56,0.702-1.541,0.852-2.192,0.333l-2.063-1.642
		c-0.651-0.519-0.724-1.509-0.165-2.212l4.051-5.088c0.558-0.702,1.54-0.852,2.191-0.334l2.062,1.642
		c0.652,0.519,0.726,1.508,0.166,2.21L262.107,258.004z"/>
	<path style="fill:#1D1D1B;" d="M246.1,278.11c-0.56,0.704-1.541,0.853-2.192,0.335l-2.062-1.642
		c-0.651-0.518-0.725-1.507-0.165-2.21l4.05-5.089c0.56-0.703,1.541-0.852,2.192-0.334l2.063,1.641
		c0.651,0.519,0.726,1.509,0.165,2.212L246.1,278.11z"/>
	<path style="fill:#1D1D1B;" d="M239.653,267.887l1.244-1.562c0.027-0.03,0.057-0.055,0.082-0.086
		c0.701-0.881,0.609-2.12-0.207-2.769c-0.815-0.649-2.045-0.461-2.745,0.419c-0.026,0.032-0.043,0.069-0.067,0.102l-1.242,1.559
		l-3.836-3.054l-1.351,1.696l10.608,8.445l1.351-1.696L239.653,267.887z M238.8,265.946c-0.427-0.341-0.476-0.99-0.109-1.451
		c0.367-0.461,1.011-0.56,1.439-0.219c0.427,0.34,0.475,0.989,0.108,1.451C239.871,266.189,239.227,266.286,238.8,265.946z"/>
	<path style="fill:#1D1D1B;" d="M229.729,265.079c-0.559,0.703-1.541,0.853-2.192,0.335l-2.063-1.642
		c-0.651-0.519-0.725-1.508-0.166-2.211l4.051-5.089c0.559-0.703,1.541-0.853,2.192-0.334l2.062,1.642
		c0.651,0.518,0.725,1.507,0.166,2.211L229.729,265.079z"/>
	<path style="fill:#1D1D1B;" d="M240.64,276.94c-0.65-0.518-0.725-1.509-0.165-2.211l1.13-1.419l-10.609-8.446l-1.13,1.421
		c-0.559,0.703-1.541,0.852-2.192,0.334l-0.744-0.592c-2.249,4.185-1.464,9.32,2.118,12.172c3.582,2.852,8.762,2.464,12.336-0.667
		L240.64,276.94z"/>
	<path style="fill:#1D1D1B;" d="M250.826,237.534c0.651,0.518,0.725,1.508,0.167,2.211l-1.263,1.586l10.608,8.445l1.263-1.585
		c0.56-0.703,1.541-0.853,2.191-0.335l0.773,0.615c2.403-4.224,1.662-9.493-1.985-12.395c-3.647-2.904-8.947-2.444-12.525,0.844
		L250.826,237.534z"/>
	<path style="fill:#1D1D1B;" d="M256.646,256.831c-0.651-0.518-0.725-1.508-0.165-2.21l1.437-1.807l-3.165-2.52l-1.242,1.56
		c-0.024,0.033-0.041,0.069-0.067,0.102c-0.701,0.881-2.602,0.533-3.416-0.115c-0.816-0.649-1.579-2.423-0.879-3.303
		c0.026-0.031,0.056-0.056,0.083-0.086l1.244-1.562l-3.166-2.519l-1.438,1.805c-0.56,0.703-1.541,0.853-2.192,0.334l-0.883-0.704
		l-8.862,11.133l0.884,0.703c0.651,0.518,0.725,1.507,0.165,2.211l-1.57,1.971l3.166,2.52l1.241-1.559
		c0.025-0.034,0.041-0.07,0.067-0.103c0.7-0.88,2.601-0.534,3.416,0.117c0.815,0.648,1.579,2.421,0.878,3.302
		c-0.025,0.031-0.055,0.055-0.082,0.086l-1.243,1.562l3.166,2.52l1.569-1.971c0.56-0.703,1.541-0.853,2.191-0.334l0.884,0.703
		l8.861-11.132L256.646,256.831z"/>
</g>
</svg>
